# xmcd
#
# Track frame offsets: 
#        150
#        21005
#        39300
#        56327
#        72597
#        90595
#        108975
#        123747
#        140850
#        160730
#
# Disc length: 2347 seconds
#
# Revision: 4
# Processed by: cddbd v1.5.1PL0 Copyright (c) Steve Scherf et al.
# Submitted via: ExactAudioCopy v0.95a3
#
DISCID=8709290a
DTITLE=Alvin Lee - Detroit Diesel
DYEAR=1987
DGENRE=Rock
TTITLE0=Detroit Diesel
TTITLE1=Shot In The Dark
TTITLE2=Too Late To Run For Cover
TTITLE3=Talk Don't Bother Me
TTITLE4=Ordinary Man
TTITLE5=Heart Of Stone
TTITLE6=She's So Cute
TTITLE7=Back In My Arms Again
TTITLE8=Don't Want To Fight
TTITLE9=Let's Go
EXTD=YEAR: 1987
EXTT0=
EXTT1=
EXTT2=
EXTT3=
EXTT4=
EXTT5=
EXTT6=
EXTT7=
EXTT8=
EXTT9=
PLAYORDER=
